<?xml version="1.0" encoding="UTF-8" standalone="no"?>
<!-- Generator: Adobe Illustrator 19.2.1, SVG Export Plug-In . SVG Version: 6.00 Build 0)  -->

<svg
   xmlns:dc="http://purl.org/dc/elements/1.1/"
   xmlns:cc="http://creativecommons.org/ns#"
   xmlns:rdf="http://www.w3.org/1999/02/22-rdf-syntax-ns#"
   xmlns:svg="http://www.w3.org/2000/svg"
   xmlns="http://www.w3.org/2000/svg"
   xmlns:sodipodi="http://sodipodi.sourceforge.net/DTD/sodipodi-0.dtd"
   xmlns:inkscape="http://www.inkscape.org/namespaces/inkscape"
   version="1.1"
   id="layer"
   x="0px"
   y="0px"
   viewBox="0 0 353.70001 296.70002"
   xml:space="preserve"
   sodipodi:docname="GoAir logo.svg"
   width="353.70001"
   height="296.70001"
   inkscape:version="0.92.4 (5da689c313, 2019-01-14)"><metadata
   id="metadata17"><rdf:RDF><cc:Work
       rdf:about=""><dc:format>image/svg+xml</dc:format><dc:type
         rdf:resource="http://purl.org/dc/dcmitype/StillImage" /><dc:title></dc:title></cc:Work></rdf:RDF></metadata><defs
   id="defs15" /><sodipodi:namedview
   pagecolor="#ffffff"
   bordercolor="#666666"
   borderopacity="1"
   objecttolerance="10"
   gridtolerance="10"
   guidetolerance="10"
   inkscape:pageopacity="0"
   inkscape:pageshadow="2"
   inkscape:window-width="1920"
   inkscape:window-height="1001"
   id="namedview13"
   showgrid="false"
   inkscape:zoom="0.78"
   inkscape:cx="63.5"
   inkscape:cy="145.89999"
   inkscape:window-x="-9"
   inkscape:window-y="41"
   inkscape:window-maximized="1"
   inkscape:current-layer="layer" />
<style
   type="text/css"
   id="style2">
	.st0{fill-rule:evenodd;clip-rule:evenodd;fill:#FFFFFF;}
	.st1{fill-rule:evenodd;clip-rule:evenodd;fill:#0F3280;}
</style>

<path
   class="st1"
   d="m 353.7,0 c 0,0 -75.4,4.1 -98.1,5.1 -18.9,2.4 -29.7,16.8 -29.7,16.8 L 40.6,260.6 C 11.5,292.8 0,296.7 0,296.7 H 295.5 L 353.7,0"
   id="path6"
   inkscape:connector-curvature="0"
   style="clip-rule:evenodd;fill:#0f3280;fill-rule:evenodd" />
<path
   class="st0"
   d="m 207.5,100.2 -35.7,3.7 c 0,0 1,3.6 0.6,7.7 -3.7,-3.4 -7.9,-5 -9.5,-5.4 L 118,164 l 6.3,47.5 2.4,11.5 c 0,0 4.2,20.1 22.7,22.4 28.1,0.7 33.9,-13.7 33.9,-13.7 0,0 0.5,6 0.5,9.7 0,1.7 -2.1,11.1 -15.5,13.4 -13.4,2.3 -32.7,-4 -32.7,-4 l -10.1,22 c 0,0 33,13.4 72.7,0.7 28.2,-8.1 23.3,-36.6 23.3,-36.6 l -14,-136.7 m -33.6,116.6 c -10.6,1.6 -10.7,-9.5 -10.7,-9.5 l -6.9,-66.4 c 0,0 -0.5,-8 5.9,-9.4 6.4,-1.4 9.7,0.9 11.1,6.5 1.4,6.2 7.2,67.7 7.2,67.7 0,0 2,10.3 -6.6,11.1 m 120.6,13.6 c 0,-0.9 -0.2,-1.5 -0.5,-1.7 -0.3,-0.3 -0.7,-0.4 -1.4,-0.3 l 0.5,6.1 c 0.6,-0.1 1,-0.3 1.3,-0.5 0.2,-0.2 0.3,-1 0.2,-2.2 z M 315.6,120 c 0,0 -2.4,-13.1 -13.4,-21.5 -5.8,-5.7 -29.9,-10.7 -57.6,-1.3 -27.8,9.4 -22,43.9 -22,43.9 0,0 5.1,59.4 7.6,74.8 4,16.4 8.6,37.2 38.8,37.2 22.8,0 31.4,-3.5 34.1,-5.2 l 18.1,-92.1 z m -44.1,130 -0.5,-4.1 -2.2,0.2 v 4.2 l -5,0.4 1.2,-23.3 6.1,-0.5 5.6,22.6 z m 8.3,-0.5 -2,-23 5,-0.5 2,23 z m 0.5,-25.6 c -10.6,1.6 -10.6,-9.5 -10.6,-9.5 l -8.6,-83.9 c 0,0 -0.4,-8 5.9,-9.3 6.4,-1.3 9.8,0.8 11.2,6.6 1.4,6.3 8.9,85 8.9,85 0,0 1.8,10.2 -6.8,11.1 m 16.2,23.8 -0.8,-6.6 c 0,-1.2 -0.2,-2 -0.4,-2.2 -0.3,-0.3 -0.7,-0.4 -1.5,-0.3 l 1,9.3 -5.5,0.5 -2.3,-23 3.9,-0.3 c 2.6,-0.2 4.3,-0.3 5.3,-0.1 1,0.1 1.8,0.6 2.5,1.4 0.6,0.9 0.7,2.3 0.9,4.3 0.1,1.7 0.1,3 -0.2,3.6 -0.4,0.7 -0.8,1.1 -1.9,1.3 1.1,0.2 1.9,0.5 2.3,1 0.4,0.4 0.7,0.9 0.8,1.3 0.2,0.4 0.4,1.5 0.5,3.3 l 0.6,6.1 z m -27.7,-5.9 1.5,-0.1 c 0,0 -0.6,-3.6 -1.1,-6.2 -0.2,3 -0.4,6.3 -0.4,6.3"
   id="path8"
   inkscape:connector-curvature="0"
   style="clip-rule:evenodd;fill:#ffffff;fill-rule:evenodd" />

</svg>